<svg id="Ebene_2" data-name="Ebene 2" xmlns="http://www.w3.org/2000/svg" xmlns:xlink="http://www.w3.org/1999/xlink" viewBox="0 0 256 256.44"><defs><style>.cls-1{fill:url(#Unbenannter_Verlauf_82);}.cls-2{fill:url(#Neues_Verlaufsfeld_1);}.cls-3{fill:url(#Unbenannter_Verlauf_100);}.cls-4{fill:url(#Neues_Verlaufsfeld_5);}.cls-5{fill:url(#Unbenannter_Verlauf_122);}.cls-6{fill:none;stroke:#fff;stroke-miterlimit:10;stroke-width:11px;}</style><linearGradient id="Unbenannter_Verlauf_82" x1="294.19" y1="396.03" x2="294.19" y2="140.09" gradientUnits="userSpaceOnUse"><stop offset="0" stop-color="#ed6f31"/><stop offset="1" stop-color="#f7a82e"/></linearGradient><linearGradient id="Neues_Verlaufsfeld_1" x1="294.19" y1="396.23" x2="294.19" y2="140.29" gradientUnits="userSpaceOnUse"><stop offset="0" stop-color="#275f1a"/><stop offset="1" stop-color="#4fae32"/></linearGradient><linearGradient id="Unbenannter_Verlauf_100" x1="294.19" y1="396.13" x2="294.19" y2="140.19" gradientUnits="userSpaceOnUse"><stop offset="0" stop-color="#1b3151"/><stop offset="1" stop-color="#1291d1"/></linearGradient><linearGradient id="Neues_Verlaufsfeld_5" x1="294.19" y1="396.33" x2="294.19" y2="140.39" gradientUnits="userSpaceOnUse"><stop offset="0" stop-color="#5f265f"/><stop offset="1" stop-color="#e13b8e"/></linearGradient><linearGradient id="Unbenannter_Verlauf_122" x1="294.19" y1="395.83" x2="294.19" y2="139.89" gradientUnits="userSpaceOnUse"><stop offset="0" stop-color="#7c1715"/><stop offset="1" stop-color="#e41513"/></linearGradient></defs><title>erleben</title><path class="cls-1" d="M294.19,140.09a128,128,0,0,0-115.46,183.3l1.37,2.7c47.46,93.21,180.61,93.27,228.16.1h0a128,128,0,0,0-114.07-186.1h0Z" transform="translate(-166.19 -139.89)"/><path class="cls-2" d="M294.19,140.29a128,128,0,0,0-115.46,183.3l1.37,2.7c47.46,93.21,180.61,93.27,228.16.1h0a128,128,0,0,0-114.07-186.1h0Z" transform="translate(-166.19 -139.89)"/><path class="cls-3" d="M294.19,140.19a128,128,0,0,0-115.46,183.3l1.37,2.7c47.46,93.21,180.61,93.27,228.16.1h0a128,128,0,0,0-114.07-186.1h0Z" transform="translate(-166.19 -139.89)"/><path class="cls-4" d="M294.19,140.39a128,128,0,0,0-115.46,183.3l1.37,2.7c47.46,93.21,180.61,93.27,228.16.1h0a128,128,0,0,0-114.07-186.1h0Z" transform="translate(-166.19 -139.89)"/><path class="cls-5" d="M294.19,139.89a128,128,0,0,0-115.46,183.3l1.37,2.7c47.46,93.21,180.61,93.27,228.16.1h0a128,128,0,0,0-114.07-186.1h0Z" transform="translate(-166.19 -139.89)"/><circle class="cls-6" cx="128" cy="128.07" r="95.44"/></svg>