<svg id="Ebene_1" data-name="Ebene 1" xmlns="http://www.w3.org/2000/svg" viewBox="0 0 26.98 26.78"><defs><style>.cls-1{fill:#fff;}</style></defs><title>link</title><path class="cls-1" d="M13,9.24L11.57,7.79a1,1,0,0,1,0-1.45l2.58-2.58A8.7,8.7,0,0,1,29,9.86a8.84,8.84,0,0,1-2.58,6.2l-2.58,2.58a1,1,0,0,1-1.44,0L21,17.2a1,1,0,0,1,0-1.45l2.58-2.58A4.53,4.53,0,0,0,24.91,10a4.59,4.59,0,0,0-4.55-4.55,4.53,4.53,0,0,0-3.2,1.34L14.57,9.34A1.64,1.64,0,0,1,13,9.24h0Zm5.89,0.52,1.45,1.45a1,1,0,0,1,0,1.44l-6.82,6.82a1,1,0,0,1-1.44,0L10.64,18a1,1,0,0,1,0-1.44l6.82-6.82a1,1,0,0,1,1.44,0h0ZM2.06,19.37a8.86,8.86,0,0,1,2.58-6.2l2.58-2.58a1,1,0,0,1,1.45,0L10.12,12a1,1,0,0,1,0,1.44L7.54,16.06a4.53,4.53,0,1,0,6.41,6.41l2.58-2.58a1,1,0,0,1,1.45,0l1.45,1.45a1,1,0,0,1,0,1.45l-2.58,2.58A8.7,8.7,0,0,1,10.64,28a8.56,8.56,0,0,1-8.58-8.58h0Zm0,0" transform="translate(-2.06 -1.17)"/></svg>