<svg id="Ebene_2" data-name="Ebene 2" xmlns="http://www.w3.org/2000/svg" xmlns:xlink="http://www.w3.org/1999/xlink" viewBox="0 0 256 410.1"><defs><style>.cls-1{fill:url(#Unbenannter_Verlauf_82);}.cls-2{fill:url(#Neues_Verlaufsfeld_1);}.cls-3{fill:url(#Unbenannter_Verlauf_100);}.cls-4{fill:none;stroke:#fff;stroke-miterlimit:10;stroke-width:11px;}.cls-5{fill:#fff;}</style><linearGradient id="Unbenannter_Verlauf_82" x1="293.48" y1="549.49" x2="293.48" y2="139.89" gradientUnits="userSpaceOnUse"><stop offset="0" stop-color="#ed6f31"/><stop offset="1" stop-color="#f7a82e"/></linearGradient><linearGradient id="Neues_Verlaufsfeld_1" x1="293.48" y1="549.99" x2="293.48" y2="140.39" gradientUnits="userSpaceOnUse"><stop offset="0" stop-color="#275f1a"/><stop offset="1" stop-color="#4fae32"/></linearGradient><linearGradient id="Unbenannter_Verlauf_100" x1="293.48" y1="549.49" x2="293.48" y2="139.89" gradientUnits="userSpaceOnUse"><stop offset="0" stop-color="#1b3151"/><stop offset="1" stop-color="#1291d1"/></linearGradient></defs><title>einkaufen</title><path class="cls-1" d="M293.48,139.89A128,128,0,0,0,178,323.19c0.45,0.95,115.46,226.3,115.46,226.3L407.55,326a128,128,0,0,0-114.07-186.1h0Z" transform="translate(-165.48 -139.89)"/><path class="cls-2" d="M293.48,140.39A128,128,0,0,0,178,323.69C178.47,324.64,293.48,550,293.48,550l114.07-223.5a128,128,0,0,0-114.07-186.1h0Z" transform="translate(-165.48 -139.89)"/><path class="cls-3" d="M293.48,139.89A128,128,0,0,0,178,323.19c0.45,0.95,115.46,226.3,115.46,226.3L407.55,326a128,128,0,0,0-114.07-186.1h0Z" transform="translate(-165.48 -139.89)"/><circle class="cls-4" cx="127.75" cy="125.65" r="95.44"/><path class="cls-5" d="M288.82,213.93L232.7,274.06l-4.2,4.21,50.75,46.86,6.19,5.59,58.2-63.6,1.89-53.3Zm27.06,37.23a10.5,10.5,0,1,1,10.5-10.49A10.5,10.5,0,0,1,315.88,251.16Z" transform="translate(-165.48 -139.89)"/></svg>