<svg id="Ebene_2" data-name="Ebene 2" xmlns="http://www.w3.org/2000/svg" xmlns:xlink="http://www.w3.org/1999/xlink" viewBox="0 0 256 409.6"><defs><style>.cls-1{fill:url(#Unbenannter_Verlauf_100);}.cls-2{fill:none;stroke:#fff;stroke-miterlimit:10;stroke-width:11px;}.cls-3{fill:#fff;}</style><linearGradient id="Unbenannter_Verlauf_100" x1="293.48" y1="549.49" x2="293.48" y2="139.89" gradientUnits="userSpaceOnUse"><stop offset="0" stop-color="#1b3151"/><stop offset="1" stop-color="#1291d1"/></linearGradient></defs><title>einkaufen</title><path class="cls-1" d="M293.48,139.89A128,128,0,0,0,178,323.19c0.45,0.95,115.46,226.3,115.46,226.3L407.55,326a128,128,0,0,0-114.07-186.1h0Z" transform="translate(-165.48 -139.89)"/><circle class="cls-2" cx="127.75" cy="125.65" r="95.44"/><g id="Gugge"><path class="cls-3" d="M272.08,253.15a4.94,4.94,0,0,0,4.94-4.94V228.94a15.62,15.62,0,0,1,31.25,0v19.27a4.94,4.94,0,1,0,9.88,0V228.94a25.5,25.5,0,1,0-51,0v19.27A4.94,4.94,0,0,0,272.08,253.15Z" transform="translate(-165.48 -139.89)"/><path class="cls-3" d="M349.31,242H323.09v6.16a9.88,9.88,0,1,1-19.76,0V242H282v6.16a9.88,9.88,0,1,1-19.76,0V242H235.69a1.85,1.85,0,0,0-1.88,2.4l17.28,70.39a10.13,10.13,0,0,0,9.3,7.16h64.22a10.14,10.14,0,0,0,9.3-7.16l17.28-70.39A1.85,1.85,0,0,0,349.31,242Z" transform="translate(-165.48 -139.89)"/></g></svg>