<svg id="Ebene_2" data-name="Ebene 2" xmlns="http://www.w3.org/2000/svg" xmlns:xlink="http://www.w3.org/1999/xlink" viewBox="0 0 256 409.6"><defs><style>.cls-1{fill:url(#Unbenannter_Verlauf_122);}.cls-2{fill:none;stroke:#fff;stroke-miterlimit:10;stroke-width:11px;}.cls-3{fill:#fff;}</style><linearGradient id="Unbenannter_Verlauf_122" x1="295.98" y1="549.49" x2="295.98" y2="139.89" gradientUnits="userSpaceOnUse"><stop offset="0" stop-color="#7c1715"/><stop offset="1" stop-color="#e41513"/></linearGradient></defs><title>erleben</title><path class="cls-1" d="M296,139.89a128,128,0,0,0-115.46,183.3C181,324.14,296,549.49,296,549.49L410.05,326A128,128,0,0,0,296,139.89h0Z" transform="translate(-167.98 -139.89)"/><circle class="cls-2" cx="125.25" cy="125.65" r="95.44"/><g id="Activites_Foots" data-name="Activites Foots"><path class="cls-3" d="M287.29,298.27c0.78,13.58-2,19-11.49,20.48s-18.61-6.63-20.47-18.21c-0.85-5.32-1.69-16.12-2.77-20.85l-8.12-22.85c-0.47-2-5.82-11.64-6.67-15.83A15.73,15.73,0,0,1,250,222.48l14.87-3c2.23-.46,8.86-0.89,8.86-0.89,9.12,0,13.51,4.71,13.51,13.83,0,5.29-9.37,13.42-9.37,13.42s-13.26,12.77-8.62,22.25S284.48,280.32,287.29,298.27Zm-10.59-82c3.77,0,6.83-4.5,6.83-10s-3.06-10-6.83-10-6.86,4.49-6.86,10S272.91,216.26,276.7,216.26Zm-14.55-1c2.42-.34,4-3.5,3.47-7s-2.88-6.14-5.31-5.79-4,3.5-3.47,7S259.73,215.58,262.15,215.24Zm-10.37,2.81c1.76-.41,2.68-2.83,2.08-5.39s-2.52-4.31-4.27-3.89-2.68,2.82-2.07,5.39S250,218.47,251.78,218.05Zm-8.39,5.5c1.53-.6,2.05-2.92,1.16-5.16s-2.85-3.58-4.38-3-2.05,2.92-1.16,5.16S241.87,224.15,243.4,223.55Zm-9.13.65c-1,.4-1.37,1.93-0.78,3.42s1.89,2.37,2.91,2,1.37-1.94.78-3.42S235.28,223.79,234.26,224.2Zm107.54,21.67-14.55-4.26c-2.18-.65-8.76-1.65-8.76-1.65-9.09-.77-13.86,3.55-14.64,12.63-0.47,5.25,8.17,14.16,8.17,14.16s12.13,13.86,6.68,22.9-16.17,10.89-20.49,28.52c-1.95,13.45.42,19.06,9.68,21.4s19.11-5,22-16.38c1.31-5.24,3.06-15.93,4.56-20.55l10-22.06c0.64-2,6.79-11.1,8-15.2A15.74,15.74,0,0,0,341.81,245.86Zm-26-8.5c3.77,0.32,7.2-3.87,7.68-9.39s-2.19-10.23-6-10.56-7.2,3.87-7.68,9.39S312,237,315.78,237.36Zm14.58,0.23c2.38,0.55,5-1.84,5.77-5.32s-0.48-6.76-2.86-7.31-5,1.84-5.77,5.32S328,237,330.37,237.59Zm10.09,3.68c1.7,0.56,3.75-1,4.58-3.5s0.11-5-1.59-5.54-3.76,1-4.59,3.5S338.74,240.72,340.46,241.28Zm11.78-1.6c-1.49-.74-3.56.41-4.63,2.57s-0.75,4.5.74,5.24,3.56-.41,4.63-2.57S353.72,240.4,352.24,239.67Zm5.15,9.22c-1-.49-2.36.28-3.08,1.71s-0.5,3,.5,3.49,2.36-.27,3.08-1.71S358.38,249.39,357.39,248.9Z" transform="translate(-167.98 -139.89)"/></g></svg>