<svg id="Ebene_2" data-name="Ebene 2" xmlns="http://www.w3.org/2000/svg" xmlns:xlink="http://www.w3.org/1999/xlink" viewBox="0 0 256 409.6"><defs><style>.cls-1{fill:url(#Unbenannter_Verlauf_122);}.cls-2{fill:none;stroke:#fff;stroke-miterlimit:10;stroke-width:11px;}.cls-3{fill:#fff;}</style><linearGradient id="Unbenannter_Verlauf_122" x1="295.98" y1="549.49" x2="295.98" y2="139.89" gradientUnits="userSpaceOnUse"><stop offset="0" stop-color="#7c1715"/><stop offset="1" stop-color="#e41513"/></linearGradient></defs><title>erleben</title><path class="cls-1" d="M296,139.89a128,128,0,0,0-115.46,183.3C181,324.14,296,549.49,296,549.49L410.05,326A128,128,0,0,0,296,139.89h0Z" transform="translate(-167.98 -139.89)"/><circle class="cls-2" cx="125.25" cy="125.65" r="95.44"/><g id="Activites_Foots" data-name="Activites Foots"><path class="cls-3" d="M287.25,296.27c0.72,12.44-1.87,17.37-10.53,18.76s-17-6.07-18.75-16.68c-0.78-4.87-1.55-14.76-2.54-19.1L248,258.33c-0.43-1.85-5.33-10.66-6.11-14.5a14.41,14.41,0,0,1,11.25-17l13.62-2.75c2-.42,8.12-0.82,8.12-0.82,8.35,0,12.38,4.32,12.38,12.67,0,4.84-8.58,12.3-8.58,12.3s-12.15,11.69-7.9,20.38S284.68,279.83,287.25,296.27Zm-9.7-75.13c3.45,0,6.26-4.12,6.26-9.18s-2.81-9.16-6.26-9.16-6.28,4.11-6.28,9.16S274.08,221.14,277.55,221.14Zm-13.33-.93c2.22-.31,3.65-3.2,3.18-6.45s-2.64-5.63-4.86-5.31-3.64,3.2-3.18,6.45S262,220.52,264.22,220.21Zm-9.5,2.57c1.61-.38,2.46-2.59,1.91-4.94s-2.31-3.94-3.91-3.57-2.46,2.58-1.9,4.94S253.11,223.16,254.72,222.78Zm-7.68,5c1.4-.55,1.88-2.67,1.06-4.73s-2.61-3.28-4-2.72S242.21,223,243,225.1,245.64,228.37,247,227.82Zm-8.37.59c-0.93.36-1.25,1.77-.72,3.14s1.73,2.17,2.67,1.81,1.25-1.77.72-3.14S239.6,228,238.67,228.41Zm98.52,19.85-13.33-3.9c-2-.59-8-1.51-8-1.51-8.33-.71-12.7,3.25-13.41,11.57-0.43,4.81,7.49,13,7.49,13s11.11,12.69,6.12,21-14.81,10-18.77,26.13c-1.78,12.32.39,17.46,8.87,19.6s17.5-4.6,20.12-15c1.2-4.8,2.81-14.59,4.18-18.82l9.19-20.21c0.59-1.82,6.22-10.17,7.33-13.92A14.42,14.42,0,0,0,337.19,248.26Zm-23.84-7.79c3.45,0.3,6.59-3.55,7-8.6s-2-9.37-5.46-9.67-6.59,3.55-7,8.6S309.9,240.18,313.35,240.47Zm13.36,0.21c2.18,0.5,4.55-1.68,5.29-4.87s-0.44-6.19-2.62-6.69-4.55,1.68-5.28,4.87S324.54,240.18,326.71,240.68Zm9.24,3.38c1.56,0.51,3.43-.92,4.19-3.21s0.1-4.56-1.46-5.08-3.44.92-4.2,3.21S334.39,243.55,336,244.06Zm10.79-1.47c-1.36-.68-3.26.37-4.24,2.35s-0.68,4.13.68,4.8,3.26-.37,4.24-2.35S348.1,243.26,346.75,242.59Zm4.72,8.45c-0.9-.45-2.16.26-2.82,1.57s-0.45,2.75.45,3.19,2.16-.25,2.82-1.57S352.38,251.5,351.47,251Z" transform="translate(-167.98 -139.89)"/></g></svg>