<svg id="Ebene_2" data-name="Ebene 2" xmlns="http://www.w3.org/2000/svg" xmlns:xlink="http://www.w3.org/1999/xlink" viewBox="0 0 256 409.6"><defs><style>.cls-1{fill:url(#Neues_Verlaufsfeld_1);}.cls-2{fill:#fff;}.cls-3{fill:none;stroke:#fff;stroke-miterlimit:10;stroke-width:11px;}</style><linearGradient id="Neues_Verlaufsfeld_1" x1="293.48" y1="549.99" x2="293.48" y2="140.39" gradientUnits="userSpaceOnUse"><stop offset="0" stop-color="#275f1a"/><stop offset="1" stop-color="#4fae32"/></linearGradient></defs><title>essen</title><path class="cls-1" d="M293.48,140.39A128,128,0,0,0,178,323.69C178.47,324.64,293.48,550,293.48,550l114.07-223.5a128,128,0,0,0-114.07-186.1h0Z" transform="translate(-165.48 -140.39)"/><path class="cls-2" d="M272.27,293c11.9-5.26,20.57-20.72,20.57-40.79,0-21.9-17-40.77-33.41-40.92h-0.06c-16.42.16-33.41,19-33.41,40.92,0,20.07,8.66,35.53,20.58,40.79,1.23,0.6,6.85,2.45,6.85,2.45l-3,57.75,18.08,3.22-3.13-60.9Zm-21.14-12.47a1.1,1.1,0,0,1-1.25.53,8.76,8.76,0,0,1-1.84-.76c-0.25-.15-0.5-0.3-0.76-0.48l-0.43-.3a29.38,29.38,0,0,1-4.56-3.7c-5.21-5.09-6.66-10.25-8.53-15.59a24.17,24.17,0,0,1-1-5.41,42,42,0,0,1,.13-5.11,50.2,50.2,0,0,1,1.84-8.81,27.67,27.67,0,0,1,2.69-6.07c0.95-1.54,1.6-2.58,1.6-2.58a1.14,1.14,0,0,1,1.5-.32,1.25,1.25,0,0,1,.69,1.39,27.45,27.45,0,0,0-.82,2.74,31.62,31.62,0,0,0-1,5.69,57.65,57.65,0,0,0-.36,8.1,41.69,41.69,0,0,0,.24,4.36,19.73,19.73,0,0,0,.84,4.08c2,5.54,3.49,11,6,14.83,0.51,0.75,1.06,1.51,1.53,2.19a27,27,0,0,0,1.75,2.4,11.94,11.94,0,0,0,1.36,1.49A1.12,1.12,0,0,1,251.12,280.53Z" transform="translate(-165.48 -140.39)"/><path class="cls-2" d="M351.52,211.29H347v64.23h-5.89V211.29h-6.7v64.23h-5.87V211.29H322V275.5h-5.9V211.28H310.2s-9.14,68.43-4,76.17a30.68,30.68,0,0,0,18.61,12.9l-2.73,53.53,17.28-4.24-2.57-49.22,0.26-.1a30.76,30.76,0,0,0,18.41-12.87C360.65,279.72,351.52,211.29,351.52,211.29Z" transform="translate(-165.48 -140.39)"/><circle class="cls-3" cx="127.75" cy="125.15" r="95.44"/></svg>