<svg id="Ebene_2" data-name="Ebene 2" xmlns="http://www.w3.org/2000/svg" xmlns:xlink="http://www.w3.org/1999/xlink" viewBox="0 0 256 409.6"><defs><style>.cls-1{fill:url(#Neues_Verlaufsfeld_1);}.cls-2{fill:#fff;}.cls-3{fill:none;stroke:#fff;stroke-miterlimit:10;stroke-width:11px;}</style><linearGradient id="Neues_Verlaufsfeld_1" x1="293.48" y1="549.99" x2="293.48" y2="140.39" gradientUnits="userSpaceOnUse"><stop offset="0" stop-color="#275f1a"/><stop offset="1" stop-color="#4fae32"/></linearGradient></defs><title>essen</title><path class="cls-1" d="M293.48,140.39A128,128,0,0,0,178,323.69C178.47,324.64,293.48,550,293.48,550l114.07-223.5a128,128,0,0,0-114.07-186.1h0Z" transform="translate(-165.48 -140.39)"/><g id="Essen"><path class="cls-2" d="M275.2,298.06c10.86-4.8,18.77-18.9,18.77-37.21,0-20-15.5-37.19-30.48-37.33h-0.06c-15,.14-30.48,17.35-30.48,37.33,0,18.31,7.9,32.42,18.78,37.21,1.12,0.55,6.25,2.23,6.25,2.23L255.26,353l16.49,2.94-2.85-55.56Zm-19.29-11.38a1,1,0,0,1-1.14.48,8,8,0,0,1-1.68-.69l-0.7-.44-0.39-.28a26.8,26.8,0,0,1-4.16-3.37c-4.76-4.65-6.07-9.35-7.79-14.22a22.05,22.05,0,0,1-.89-4.94,38.35,38.35,0,0,1,.12-4.66,45.8,45.8,0,0,1,1.68-8,25.24,25.24,0,0,1,2.45-5.54c0.86-1.4,1.46-2.35,1.46-2.35a1,1,0,0,1,1.37-.3,1.14,1.14,0,0,1,.63,1.27,25,25,0,0,0-.75,2.5,28.85,28.85,0,0,0-.94,5.19,52.6,52.6,0,0,0-.33,7.39,38,38,0,0,0,.22,4,18,18,0,0,0,.77,3.73c1.85,5.06,3.18,10,5.5,13.53,0.47,0.68,1,1.38,1.39,2a24.6,24.6,0,0,0,1.59,2.19,10.9,10.9,0,0,0,1.24,1.36A1,1,0,0,1,255.91,286.69Z" transform="translate(-165.48 -140.39)"/><path class="cls-2" d="M347.5,223.52h-4.16v58.59H338V223.52h-6.11v58.59H326.5V223.52h-5.89V282.1h-5.38V223.51h-5.42s-8.33,62.43-3.62,69.49a28,28,0,0,0,17,11.77l-2.49,48.83,15.77-3.87-2.35-44.9,0.24-.09A28.07,28.07,0,0,0,351.12,293C355.84,286,347.5,223.52,347.5,223.52Z" transform="translate(-165.48 -140.39)"/></g><circle class="cls-3" cx="127.75" cy="125.15" r="95.44"/></svg>