<svg id="Ebene_2" data-name="Ebene 2" xmlns="http://www.w3.org/2000/svg" xmlns:xlink="http://www.w3.org/1999/xlink" viewBox="0 0 256 409.6"><defs><style>.cls-1{fill:url(#Unbenannter_Verlauf_114);}.cls-2{fill:none;stroke:#fff;stroke-miterlimit:10;stroke-width:11px;}.cls-3{fill:#fff;}</style><linearGradient id="Unbenannter_Verlauf_114" x1="293.98" y1="549.99" x2="293.98" y2="140.39" gradientUnits="userSpaceOnUse"><stop offset="0" stop-color="#5f265f"/><stop offset="1" stop-color="#e13b8e"/></linearGradient></defs><title>tanzen</title><path class="cls-1" d="M294,140.39a128,128,0,0,0-115.46,183.3C179,324.64,294,550,294,550l114.07-223.5A128,128,0,0,0,294,140.39h0Z" transform="translate(-165.98 -140.39)"/><circle class="cls-2" cx="127.25" cy="125.15" r="95.44"/><path id="Music" class="cls-3" d="M340.61,205.48a2.18,2.18,0,0,0-1.7-.52L272,213.62a2.16,2.16,0,0,0-1.88,2.14V294a21.42,21.42,0,0,0-16.18-7.07c-11.32,0-20.5,8.16-20.5,18.22s9.18,18.22,20.5,18.22,20.5-8.16,20.5-18.22a16.37,16.37,0,0,0-.15-2.12,2.11,2.11,0,0,0,.15-0.74V239.73l62.58-8.1v40.8a21.43,21.43,0,0,0-16.18-7.07c-11.32,0-20.5,8.16-20.5,18.22s9.18,18.22,20.5,18.22,20.5-8.16,20.5-18.22c0-.2,0-0.39,0-0.59s0-.11,0-0.17V207.1A2.15,2.15,0,0,0,340.61,205.48Z" transform="translate(-165.98 -140.39)"/></svg>