<svg id="Ebene_2" data-name="Ebene 2" xmlns="http://www.w3.org/2000/svg" xmlns:xlink="http://www.w3.org/1999/xlink" viewBox="0 0 256 409.6"><defs><style>.cls-1{fill:url(#Neues_Verlaufsfeld_5);}.cls-2{fill:none;stroke:#fff;stroke-miterlimit:10;stroke-width:11px;}.cls-3{fill:#fff;}</style><linearGradient id="Neues_Verlaufsfeld_5" x1="295.48" y1="549.99" x2="295.48" y2="140.39" gradientUnits="userSpaceOnUse"><stop offset="0" stop-color="#5f265f"/><stop offset="1" stop-color="#e13b8e"/></linearGradient></defs><title>tanzen</title><path class="cls-1" d="M295.48,140.39A128,128,0,0,0,180,323.69C180.47,324.64,295.48,550,295.48,550l114.07-223.5a128,128,0,0,0-114.07-186.1h0Z" transform="translate(-167.48 -140.39)"/><circle class="cls-2" cx="125.75" cy="125.15" r="95.44"/><path id="Music" class="cls-3" d="M335.56,208.43A2,2,0,0,0,334,208l-61.25,7.92a2,2,0,0,0-1.72,2v71.65A19.61,19.61,0,0,0,256.21,283c-10.37,0-18.77,7.47-18.77,16.68s8.4,16.68,18.77,16.68S275,308.92,275,299.7a15,15,0,0,0-.14-1.94,1.94,1.94,0,0,0,.14-0.68v-57.3l57.3-7.42v37.36a19.62,19.62,0,0,0-14.82-6.47c-10.37,0-18.77,7.47-18.77,16.68s8.4,16.68,18.77,16.68,18.77-7.47,18.77-16.68c0-.18,0-0.36,0-0.54s0-.1,0-0.15V209.92A2,2,0,0,0,335.56,208.43Z" transform="translate(-167.48 -140.39)"/></svg>