<svg id="Ebene_2" data-name="Ebene 2" xmlns="http://www.w3.org/2000/svg" xmlns:xlink="http://www.w3.org/1999/xlink" viewBox="0 0 256 409.6"><defs><style>.cls-1{fill:url(#Unbenannter_Verlauf_82);}.cls-2{fill:none;stroke:#fff;stroke-miterlimit:10;stroke-width:11px;}.cls-3{fill:#fff;}</style><linearGradient id="Unbenannter_Verlauf_82" x1="293.48" y1="549.49" x2="293.48" y2="139.89" gradientUnits="userSpaceOnUse"><stop offset="0" stop-color="#ed6f31"/><stop offset="1" stop-color="#f7a82e"/></linearGradient></defs><title>trinken</title><path class="cls-1" d="M293.48,139.89A128,128,0,0,0,178,323.19c0.45,0.95,115.46,226.3,115.46,226.3L407.55,326a128,128,0,0,0-114.07-186.1h0Z" transform="translate(-165.48 -139.89)"/><circle class="cls-2" cx="127.75" cy="125.65" r="95.44"/><g id="Trinken"><path class="cls-3" d="M337.49,252a2.9,2.9,0,0,0-2.91-2.91H233.75a2.9,2.9,0,0,0-2.91,2.91,52.51,52.51,0,0,0,2.68,16.57,53.28,53.28,0,0,0,101.26.09A52.26,52.26,0,0,0,337.49,252ZM330,264.84H238.48a48.73,48.73,0,0,1-1.67-10h94.86A51.2,51.2,0,0,1,330,264.84Z" transform="translate(-165.48 -139.89)"/><path class="cls-3" d="M289.55,310.76v52.13a60.86,60.86,0,0,0-10.75,0V310.76A60.87,60.87,0,0,0,289.55,310.76Z" transform="translate(-165.48 -139.89)"/><path class="cls-3" d="M340.63,269.2a15.91,15.91,0,0,0,4.7-2.45l-3.26-3.26C341.64,265.39,341.18,267.29,340.63,269.2Z" transform="translate(-165.48 -139.89)"/><path class="cls-3" d="M318.44,243.34h3.46l-2.13-2.13A11.3,11.3,0,0,0,318.44,243.34Z" transform="translate(-165.48 -139.89)"/><path class="cls-3" d="M334.58,221.38a30.61,30.61,0,0,0-29.34,22h6.95a22.88,22.88,0,0,1,3.26-5.94,5.69,5.69,0,0,1,2.68-1.9,5.18,5.18,0,0,1,1.9-2.68,25.33,25.33,0,0,1,11.3-4.7,6.61,6.61,0,0,1,3.26.55,5.91,5.91,0,0,1,3.26-.55,22.93,22.93,0,0,1,11.3,4.7,5.69,5.69,0,0,1,1.9,2.68,5.18,5.18,0,0,1,2.68,1.9,25.33,25.33,0,0,1,4.7,11.3,6.61,6.61,0,0,1-.55,3.26,4.77,4.77,0,0,1,.55,3.26,22.93,22.93,0,0,1-4.7,11.3,5.69,5.69,0,0,1-2.68,1.9,5.18,5.18,0,0,1-1.9,2.68,23.35,23.35,0,0,1-11,4.58,51.16,51.16,0,0,1-3.57,6.83A30.57,30.57,0,1,0,334.58,221.38Z" transform="translate(-165.48 -139.89)"/><path class="cls-3" d="M330.08,243.34h1.56v-9.51a18.58,18.58,0,0,0-7.84,3.26Z" transform="translate(-165.48 -139.89)"/><path class="cls-3" d="M337.49,233.92v10a5.13,5.13,0,0,1,.78.35l7.06-7.06A19,19,0,0,0,337.49,233.92Z" transform="translate(-165.48 -139.89)"/><path class="cls-3" d="M349.36,241.21l-7.06,7.06c0.12,0.23.23,0.55,0.35,0.78h10A18.8,18.8,0,0,0,349.36,241.21Z" transform="translate(-165.48 -139.89)"/><path class="cls-3" d="M352.59,254.87h-9.51a7.08,7.08,0,0,1-.12,1.56l6.37,6.37A19,19,0,0,0,352.59,254.87Z" transform="translate(-165.48 -139.89)"/></g></svg>